<mxfile host="app.diagrams.net" modified="2021-12-07T14:40:14.137Z" agent="5.0 (Windows)" etag="8zu5oBmqApt2rxz7KtYa" version="15.9.1" type="github">
  <diagram id="wnDa86_sgH5_1HbZJhVr" name="Page-1">
    <mxGraphModel dx="868" dy="388" grid="1" gridSize="10" guides="1" tooltips="1" connect="1" arrows="1" fold="1" page="1" pageScale="1" pageWidth="850" pageHeight="1100" math="0" shadow="0">
      <root>
        <mxCell id="0" />
        <mxCell id="1" parent="0" />
        <mxCell id="a_ci2bYjOTqBM8tlO-We-2" value="mp_code_state_t" style="swimlane;fontStyle=1;childLayout=stackLayout;horizontal=1;startSize=26;fillColor=#fff2cc;horizontalStack=0;resizeParent=1;resizeParentMax=0;resizeLast=0;collapsible=1;marginBottom=0;fontSize=14;strokeColor=#d6b656;" parent="1" vertex="1">
          <mxGeometry x="130" y="80" width="300" height="110" as="geometry" />
        </mxCell>
        <mxCell id="a_ci2bYjOTqBM8tlO-We-3" value="+ fun_bc: mp_obj_fun_bc_t*" style="text;strokeColor=#666666;fillColor=#f5f5f5;align=left;verticalAlign=top;spacingLeft=4;spacingRight=4;overflow=hidden;rotatable=0;points=[[0,0.5],[1,0.5]];portConstraint=eastwest;fontSize=14;fontStyle=1;fontColor=#333333;" parent="a_ci2bYjOTqBM8tlO-We-2" vertex="1">
          <mxGeometry y="26" width="300" height="26" as="geometry" />
        </mxCell>
        <mxCell id="a_ci2bYjOTqBM8tlO-We-4" value="+ frame: struct _mp_obj_frame_t *" style="text;strokeColor=#82b366;fillColor=#d5e8d4;align=left;verticalAlign=top;spacingLeft=4;spacingRight=4;overflow=hidden;rotatable=0;points=[[0,0.5],[1,0.5]];portConstraint=eastwest;fontSize=14;fontStyle=1" parent="a_ci2bYjOTqBM8tlO-We-2" vertex="1">
          <mxGeometry y="52" width="300" height="26" as="geometry" />
        </mxCell>
        <mxCell id="a_ci2bYjOTqBM8tlO-We-9" value="+ prev_state : struct _mp_code_state_t *" style="text;align=left;verticalAlign=top;spacingLeft=4;spacingRight=4;overflow=hidden;rotatable=0;points=[[0,0.5],[1,0.5]];portConstraint=eastwest;fontSize=14;fontStyle=1" parent="a_ci2bYjOTqBM8tlO-We-2" vertex="1">
          <mxGeometry y="78" width="300" height="32" as="geometry" />
        </mxCell>
        <mxCell id="a_ci2bYjOTqBM8tlO-We-25" value="mp_obj_fun_bc_t" style="swimlane;fontStyle=1;childLayout=stackLayout;horizontal=1;startSize=26;fillColor=#f5f5f5;horizontalStack=0;resizeParent=1;resizeParentMax=0;resizeLast=0;collapsible=1;marginBottom=0;fontSize=14;fontColor=#333333;strokeColor=#666666;" parent="1" vertex="1">
          <mxGeometry x="510" y="10" width="260" height="180" as="geometry" />
        </mxCell>
        <mxCell id="a_ci2bYjOTqBM8tlO-We-28" value="+ base: mp_obj_base_t" style="text;strokeColor=none;fillColor=none;align=left;verticalAlign=top;spacingLeft=4;spacingRight=4;overflow=hidden;rotatable=0;points=[[0,0.5],[1,0.5]];portConstraint=eastwest;fontSize=14;" parent="a_ci2bYjOTqBM8tlO-We-25" vertex="1">
          <mxGeometry y="26" width="260" height="26" as="geometry" />
        </mxCell>
        <mxCell id="a_ci2bYjOTqBM8tlO-We-27" value="+ globals: mp_obj_dict_t *" style="text;strokeColor=none;fillColor=none;align=left;verticalAlign=top;spacingLeft=4;spacingRight=4;overflow=hidden;rotatable=0;points=[[0,0.5],[1,0.5]];portConstraint=eastwest;fontSize=14;" parent="a_ci2bYjOTqBM8tlO-We-25" vertex="1">
          <mxGeometry y="52" width="260" height="26" as="geometry" />
        </mxCell>
        <mxCell id="a_ci2bYjOTqBM8tlO-We-26" value="+ bytecode: const byte *" style="text;strokeColor=none;fillColor=none;align=left;verticalAlign=top;spacingLeft=4;spacingRight=4;overflow=hidden;rotatable=0;points=[[0,0.5],[1,0.5]];portConstraint=eastwest;fontSize=14;" parent="a_ci2bYjOTqBM8tlO-We-25" vertex="1">
          <mxGeometry y="78" width="260" height="24" as="geometry" />
        </mxCell>
        <mxCell id="a_ci2bYjOTqBM8tlO-We-35" value="+ const_table: const mp_uint_t *" style="text;strokeColor=none;fillColor=none;align=left;verticalAlign=top;spacingLeft=4;spacingRight=4;overflow=hidden;rotatable=0;points=[[0,0.5],[1,0.5]];portConstraint=eastwest;fontSize=14;" parent="a_ci2bYjOTqBM8tlO-We-25" vertex="1">
          <mxGeometry y="102" width="260" height="26" as="geometry" />
        </mxCell>
        <mxCell id="a_ci2bYjOTqBM8tlO-We-36" value="+ rc: const struct _mp_raw_code_t *" style="text;strokeColor=#9673a6;fillColor=#e1d5e7;align=left;verticalAlign=top;spacingLeft=4;spacingRight=4;overflow=hidden;rotatable=0;points=[[0,0.5],[1,0.5]];portConstraint=eastwest;fontSize=14;" parent="a_ci2bYjOTqBM8tlO-We-25" vertex="1">
          <mxGeometry y="128" width="260" height="26" as="geometry" />
        </mxCell>
        <mxCell id="a_ci2bYjOTqBM8tlO-We-37" value="+ extra_args: mp_obj_t" style="text;strokeColor=none;fillColor=none;align=left;verticalAlign=top;spacingLeft=4;spacingRight=4;overflow=hidden;rotatable=0;points=[[0,0.5],[1,0.5]];portConstraint=eastwest;fontSize=14;" parent="a_ci2bYjOTqBM8tlO-We-25" vertex="1">
          <mxGeometry y="154" width="260" height="26" as="geometry" />
        </mxCell>
        <mxCell id="a_ci2bYjOTqBM8tlO-We-29" style="edgeStyle=orthogonalEdgeStyle;rounded=0;orthogonalLoop=1;jettySize=auto;html=1;entryX=0;entryY=0.087;entryDx=0;entryDy=0;entryPerimeter=0;fontSize=14;" parent="1" source="a_ci2bYjOTqBM8tlO-We-3" target="a_ci2bYjOTqBM8tlO-We-25" edge="1">
          <mxGeometry relative="1" as="geometry" />
        </mxCell>
        <mxCell id="a_ci2bYjOTqBM8tlO-We-30" value="mp_obj_frame_t " style="swimlane;fontStyle=1;childLayout=stackLayout;horizontal=1;startSize=26;fillColor=#d5e8d4;horizontalStack=0;resizeParent=1;resizeParentMax=0;resizeLast=0;collapsible=1;marginBottom=0;fontSize=14;strokeColor=#82b366;" parent="1" vertex="1">
          <mxGeometry x="510" y="240" width="280" height="232" as="geometry" />
        </mxCell>
        <mxCell id="a_ci2bYjOTqBM8tlO-We-31" value="+ base: type" style="text;strokeColor=none;fillColor=none;align=left;verticalAlign=top;spacingLeft=4;spacingRight=4;overflow=hidden;rotatable=0;points=[[0,0.5],[1,0.5]];portConstraint=eastwest;fontSize=14;" parent="a_ci2bYjOTqBM8tlO-We-30" vertex="1">
          <mxGeometry y="26" width="280" height="24" as="geometry" />
        </mxCell>
        <mxCell id="a_ci2bYjOTqBM8tlO-We-43" value="+ code_state: const mp_code_state_t *" style="text;strokeColor=#d6b656;fillColor=#fff2cc;align=left;verticalAlign=top;spacingLeft=4;spacingRight=4;overflow=hidden;rotatable=0;points=[[0,0.5],[1,0.5]];portConstraint=eastwest;fontSize=14;" parent="a_ci2bYjOTqBM8tlO-We-30" vertex="1">
          <mxGeometry y="50" width="280" height="26" as="geometry" />
        </mxCell>
        <mxCell id="a_ci2bYjOTqBM8tlO-We-32" value="+ back: struct _mp_obj_frame_t *" style="text;strokeColor=none;fillColor=none;align=left;verticalAlign=top;spacingLeft=4;spacingRight=4;overflow=hidden;rotatable=0;points=[[0,0.5],[1,0.5]];portConstraint=eastwest;fontSize=14;" parent="a_ci2bYjOTqBM8tlO-We-30" vertex="1">
          <mxGeometry y="76" width="280" height="26" as="geometry" />
        </mxCell>
        <mxCell id="a_ci2bYjOTqBM8tlO-We-45" value="+ callback: mp_obj_t " style="text;strokeColor=none;fillColor=none;align=left;verticalAlign=top;spacingLeft=4;spacingRight=4;overflow=hidden;rotatable=0;points=[[0,0.5],[1,0.5]];portConstraint=eastwest;fontSize=14;" parent="a_ci2bYjOTqBM8tlO-We-30" vertex="1">
          <mxGeometry y="102" width="280" height="26" as="geometry" />
        </mxCell>
        <mxCell id="a_ci2bYjOTqBM8tlO-We-44" value="+ code: mp_obj_code_t *" style="text;strokeColor=#0e8088;fillColor=#b0e3e6;align=left;verticalAlign=top;spacingLeft=4;spacingRight=4;overflow=hidden;rotatable=0;points=[[0,0.5],[1,0.5]];portConstraint=eastwest;fontSize=14;" parent="a_ci2bYjOTqBM8tlO-We-30" vertex="1">
          <mxGeometry y="128" width="280" height="26" as="geometry" />
        </mxCell>
        <mxCell id="a_ci2bYjOTqBM8tlO-We-33" value="+ lasti: mp_uint_t " style="text;strokeColor=none;fillColor=none;align=left;verticalAlign=top;spacingLeft=4;spacingRight=4;overflow=hidden;rotatable=0;points=[[0,0.5],[1,0.5]];portConstraint=eastwest;fontSize=14;" parent="a_ci2bYjOTqBM8tlO-We-30" vertex="1">
          <mxGeometry y="154" width="280" height="26" as="geometry" />
        </mxCell>
        <mxCell id="a_ci2bYjOTqBM8tlO-We-47" value="+ lineno: mp_uint_t " style="text;strokeColor=none;fillColor=none;align=left;verticalAlign=top;spacingLeft=4;spacingRight=4;overflow=hidden;rotatable=0;points=[[0,0.5],[1,0.5]];portConstraint=eastwest;fontSize=14;" parent="a_ci2bYjOTqBM8tlO-We-30" vertex="1">
          <mxGeometry y="180" width="280" height="26" as="geometry" />
        </mxCell>
        <mxCell id="a_ci2bYjOTqBM8tlO-We-49" value="+ trace_opcodes: bool" style="text;strokeColor=none;fillColor=none;align=left;verticalAlign=top;spacingLeft=4;spacingRight=4;overflow=hidden;rotatable=0;points=[[0,0.5],[1,0.5]];portConstraint=eastwest;fontSize=14;" parent="a_ci2bYjOTqBM8tlO-We-30" vertex="1">
          <mxGeometry y="206" width="280" height="26" as="geometry" />
        </mxCell>
        <mxCell id="a_ci2bYjOTqBM8tlO-We-38" value="mp_raw_code_t " style="swimlane;fontStyle=0;childLayout=stackLayout;horizontal=1;startSize=26;fillColor=#e1d5e7;horizontalStack=0;resizeParent=1;resizeParentMax=0;resizeLast=0;collapsible=1;marginBottom=0;fontSize=14;strokeColor=#9673a6;" parent="1" vertex="1">
          <mxGeometry x="840" y="10" width="140" height="104" as="geometry" />
        </mxCell>
        <mxCell id="a_ci2bYjOTqBM8tlO-We-39" value="+ field: type" style="text;strokeColor=none;fillColor=none;align=left;verticalAlign=top;spacingLeft=4;spacingRight=4;overflow=hidden;rotatable=0;points=[[0,0.5],[1,0.5]];portConstraint=eastwest;fontSize=14;" parent="a_ci2bYjOTqBM8tlO-We-38" vertex="1">
          <mxGeometry y="26" width="140" height="26" as="geometry" />
        </mxCell>
        <mxCell id="a_ci2bYjOTqBM8tlO-We-40" value="+ field: type" style="text;strokeColor=none;fillColor=none;align=left;verticalAlign=top;spacingLeft=4;spacingRight=4;overflow=hidden;rotatable=0;points=[[0,0.5],[1,0.5]];portConstraint=eastwest;fontSize=14;" parent="a_ci2bYjOTqBM8tlO-We-38" vertex="1">
          <mxGeometry y="52" width="140" height="26" as="geometry" />
        </mxCell>
        <mxCell id="a_ci2bYjOTqBM8tlO-We-41" value="+ field: type" style="text;strokeColor=none;fillColor=none;align=left;verticalAlign=top;spacingLeft=4;spacingRight=4;overflow=hidden;rotatable=0;points=[[0,0.5],[1,0.5]];portConstraint=eastwest;fontSize=14;" parent="a_ci2bYjOTqBM8tlO-We-38" vertex="1">
          <mxGeometry y="78" width="140" height="26" as="geometry" />
        </mxCell>
        <mxCell id="a_ci2bYjOTqBM8tlO-We-42" style="edgeStyle=orthogonalEdgeStyle;rounded=0;orthogonalLoop=1;jettySize=auto;html=1;entryX=0;entryY=0.25;entryDx=0;entryDy=0;fontSize=14;" parent="1" source="a_ci2bYjOTqBM8tlO-We-36" target="a_ci2bYjOTqBM8tlO-We-38" edge="1">
          <mxGeometry relative="1" as="geometry" />
        </mxCell>
        <mxCell id="a_ci2bYjOTqBM8tlO-We-50" style="edgeStyle=orthogonalEdgeStyle;rounded=0;orthogonalLoop=1;jettySize=auto;html=1;entryX=0.75;entryY=1;entryDx=0;entryDy=0;fontSize=14;" parent="1" source="a_ci2bYjOTqBM8tlO-We-43" target="a_ci2bYjOTqBM8tlO-We-2" edge="1">
          <mxGeometry relative="1" as="geometry" />
        </mxCell>
        <mxCell id="a_ci2bYjOTqBM8tlO-We-51" style="edgeStyle=orthogonalEdgeStyle;rounded=0;orthogonalLoop=1;jettySize=auto;html=1;entryX=0;entryY=0;entryDx=0;entryDy=0;fontSize=14;" parent="1" source="a_ci2bYjOTqBM8tlO-We-4" target="a_ci2bYjOTqBM8tlO-We-30" edge="1">
          <mxGeometry relative="1" as="geometry">
            <Array as="points">
              <mxPoint x="470" y="145" />
              <mxPoint x="470" y="240" />
            </Array>
          </mxGeometry>
        </mxCell>
        <mxCell id="a_ci2bYjOTqBM8tlO-We-52" value="mp_obj_code_t" style="swimlane;fontStyle=0;childLayout=stackLayout;horizontal=1;startSize=26;fillColor=#b0e3e6;horizontalStack=0;resizeParent=1;resizeParentMax=0;resizeLast=0;collapsible=1;marginBottom=0;fontSize=14;strokeColor=#0e8088;" parent="1" vertex="1">
          <mxGeometry x="860" y="240" width="140" height="104" as="geometry" />
        </mxCell>
        <mxCell id="a_ci2bYjOTqBM8tlO-We-53" value="+ field: type" style="text;strokeColor=none;fillColor=none;align=left;verticalAlign=top;spacingLeft=4;spacingRight=4;overflow=hidden;rotatable=0;points=[[0,0.5],[1,0.5]];portConstraint=eastwest;fontSize=14;" parent="a_ci2bYjOTqBM8tlO-We-52" vertex="1">
          <mxGeometry y="26" width="140" height="26" as="geometry" />
        </mxCell>
        <mxCell id="a_ci2bYjOTqBM8tlO-We-54" value="+ field: type" style="text;strokeColor=none;fillColor=none;align=left;verticalAlign=top;spacingLeft=4;spacingRight=4;overflow=hidden;rotatable=0;points=[[0,0.5],[1,0.5]];portConstraint=eastwest;fontSize=14;" parent="a_ci2bYjOTqBM8tlO-We-52" vertex="1">
          <mxGeometry y="52" width="140" height="26" as="geometry" />
        </mxCell>
        <mxCell id="a_ci2bYjOTqBM8tlO-We-55" value="+ field: type" style="text;strokeColor=none;fillColor=none;align=left;verticalAlign=top;spacingLeft=4;spacingRight=4;overflow=hidden;rotatable=0;points=[[0,0.5],[1,0.5]];portConstraint=eastwest;fontSize=14;" parent="a_ci2bYjOTqBM8tlO-We-52" vertex="1">
          <mxGeometry y="78" width="140" height="26" as="geometry" />
        </mxCell>
        <mxCell id="a_ci2bYjOTqBM8tlO-We-56" style="edgeStyle=orthogonalEdgeStyle;rounded=0;orthogonalLoop=1;jettySize=auto;html=1;entryX=0;entryY=0;entryDx=0;entryDy=0;fontSize=14;" parent="1" source="a_ci2bYjOTqBM8tlO-We-44" target="a_ci2bYjOTqBM8tlO-We-52" edge="1">
          <mxGeometry relative="1" as="geometry">
            <Array as="points">
              <mxPoint x="830" y="381" />
              <mxPoint x="830" y="240" />
            </Array>
          </mxGeometry>
        </mxCell>
      </root>
    </mxGraphModel>
  </diagram>
</mxfile>
